<?xml version="1.0" encoding="UTF-8"?>
<svg width="50px" height="50px" viewBox="0 0 50 50" version="1.1" xmlns="http://www.w3.org/2000/svg" xmlns:xlink="http://www.w3.org/1999/xlink">
    <!-- Generator: Sketch 53.2 (72643) - https://sketchapp.com -->
    <title>Element/Icon/Social/Discord/Background</title>
    <desc>Created with Sketch.</desc>
    <g id="Element/Icon/Social/Discord/Background" stroke="none" stroke-width="1" fill="none" fill-rule="evenodd">
        <g id="Group-9" transform="translate(-0.000000, 0.000000)" fill="#7289DA">
            <g id="Element/Circle/Fill" opacity="0.1">
                <circle id="Oval" cx="25" cy="25" r="25"></circle>
            </g>
            <g id="Element/Icon/Social/Discord/Original" transform="translate(15.967413, 16.000000)">
                <path d="M11.4489937,8.55000687 C11.4489937,9.09901428 11.0440102,9.54900742 10.530983,9.54900742 C10.0269852,9.54900742 9.61300659,9.09901428 9.61300659,8.55000687 C9.61300659,8.00099945 10.0179901,7.55100632 10.530983,7.55100632 C11.0440102,7.55100632 11.4489937,8.00099945 11.4489937,8.55000687 Z M7.2460022,7.55100632 C7.75899506,7.55100632 8.17300797,8.00099945 8.16401291,8.55000687 C8.16401291,9.09901428 7.75899506,9.54900742 7.2460022,9.54900742 C6.74200439,9.54900742 6.32799149,9.09901428 6.32799149,8.55000687 C6.32799149,8.00099945 6.73300934,7.55100632 7.2460022,7.55100632 Z M16.75,1.85401154 L16.75,18 C14.4826279,15.9962997 15.2077599,16.659565 12.5739937,14.2109871 L13.0510063,15.8759995 L2.84501648,15.8759995 C1.82799149,15.8759995 1,15.048008 1,14.0219879 L1,1.85401154 C1,0.827991486 1.82799149,0 2.84501648,0 L14.9049835,0 C15.9220085,0 16.75,0.827991486 16.75,1.85401154 Z M14.1850014,10.385994 C14.1850014,7.48800659 12.8889923,5.13899231 12.8889923,5.13899231 C11.5929832,4.16701126 10.3600082,4.19399643 10.3600082,4.19399643 L10.2340088,4.33798599 C11.7639923,4.80600357 12.4750137,5.48101044 12.4750137,5.48101044 C10.3371086,4.30928421 7.82580566,4.30907822 5.7519989,5.22001648 C5.41901016,5.3730011 5.22101593,5.48101044 5.22101593,5.48101044 C5.22101593,5.48101044 5.96798325,4.76998901 7.58798599,4.30200577 L7.4980011,4.19399643 C7.4980011,4.19399643 6.26499176,4.16701126 4.96901703,5.13899231 C4.96901703,5.13899231 3.67300797,7.48800659 3.67300797,10.385994 C3.67300797,10.385994 4.42900467,11.6909981 6.41801071,11.7539978 C6.41801071,11.7539978 6.75099945,11.3490143 7.02098846,11.0069962 C5.87799835,10.6650124 5.44599533,9.94499588 5.44599533,9.94499588 C5.57841492,10.0376587 5.79673386,10.1577873 5.81499863,10.1700096 C7.33409882,11.0206947 9.49191666,11.2994385 11.4310036,10.4850082 C11.7460022,10.3680038 12.0970154,10.1969948 12.4659843,9.95399094 C12.4659843,9.95399094 12.0159912,10.6919975 10.8369865,11.0249863 C11.1070099,11.3670044 11.4310036,11.7539978 11.4310036,11.7539978 C13.4200096,11.6909981 14.1850014,10.385994 14.1850014,10.385994 Z" id=""></path>
            </g>
        </g>
    </g>
</svg>