<?xml version="1.0" encoding="UTF-8"?>
<svg width="50px" height="50px" viewBox="0 0 50 50" version="1.1" xmlns="http://www.w3.org/2000/svg" xmlns:xlink="http://www.w3.org/1999/xlink">
    <!-- Generator: Sketch 53.2 (72643) - https://sketchapp.com -->
    <title>Element/Icon/Social/Forum/Background</title>
    <desc>Created with Sketch.</desc>
    <g id="Element/Icon/Social/Forum/Background" stroke="none" stroke-width="1" fill="none" fill-rule="evenodd">
        <g id="Group-8" transform="translate(-0.000000, 0.000000)" fill="#491E8C">
            <g id="Element/Circle/Fill" opacity="0.1">
                <circle id="Oval" cx="25" cy="25" r="25"></circle>
            </g>
            <g id="Element/Icon/Social/Forum/Original" transform="translate(15.967413, 16.000000)">
                <path d="M13,7 C13,9.76251221 10.0906372,12 6.5,12 C5.21875,12 4.02813721,11.7093811 3.0218811,11.21875 C2.34063721,11.6156311 1.39373779,12 0.25,12 C0.149993896,12 0.0625,11.9437561 0.0218811035,11.8500061 C-0.018737793,11.7562561 0,11.6499939 0.0687561035,11.578125 C0.078125,11.5687561 0.768737793,10.8187561 1.1875,9.875 C0.440612793,9.05938721 0,8.0718689 0,7 C0,4.23748779 2.90936279,2 6.5,2 C10.0906372,2 13,4.23748779 13,7 Z M16.8125,13.875 C17.2312622,14.8218689 17.921875,15.5687561 17.9312439,15.578125 C18,15.6531372 18.0187378,15.7593689 17.9781189,15.8500061 C17.9406128,15.9406128 17.8500061,16 17.75,16 C16.6062622,16 15.6593628,15.6156311 14.9781189,15.21875 C13.9718628,15.7124939 12.78125,16 11.5,16 C8.8062439,16 6.4937439,14.7374878 5.5093689,12.9406128 C5.8343811,12.9750061 6.1625061,13 6.5,13 C10.6343689,13 14,10.3093872 14,7 C14,6.7875061 13.9874878,6.578125 13.9593811,6.37188721 C16.328125,7.1187439 18,8.90936279 18,11 C18,12.0718689 17.5593872,13.0625 16.8125,13.875 Z" id=""></path>
            </g>
        </g>
    </g>
</svg>