<?xml version="1.0" encoding="UTF-8"?>
<svg width="50px" height="50px" viewBox="0 0 50 50" version="1.1" xmlns="http://www.w3.org/2000/svg" xmlns:xlink="http://www.w3.org/1999/xlink">
    <!-- Generator: Sketch 53.2 (72643) - https://sketchapp.com -->
    <title>Element/Icon/Social/Github/Background</title>
    <desc>Created with Sketch.</desc>
    <g id="Element/Icon/Social/Github/Background" stroke="none" stroke-width="1" fill="none" fill-rule="evenodd">
        <g id="Group-7" transform="translate(-0.000000, 0.000000)" fill="#24292E">
            <g id="Element/Circle/Fill" opacity="0.1">
                <circle id="Oval" cx="25" cy="25" r="25"></circle>
            </g>
            <g id="Element/Icon/Social/Github/Original" transform="translate(15.967413, 16.000000)">
                <path d="M6.02057869,14.1314658 C6.02057869,14.2040464 5.9370826,14.2620968 5.83186193,14.2620968 C5.71211095,14.2729768 5.62861486,14.2149264 5.62861486,14.1314658 C5.62861486,14.0588851 5.71211095,14.0007994 5.81733162,14.0007994 C5.92620259,13.9899194 6.02057869,14.0479697 6.02057869,14.1314658 Z M4.8919284,13.9681593 C4.91733871,13.8955787 5.02259482,13.8592884 5.11693548,13.8846632 C5.22580645,13.9173387 5.29477224,14.0007994 5.27297678,14.07338 C5.25121677,14.1459607 5.1423458,14.182251 5.0479697,14.1459607 C4.93909873,14.1242006 4.86651808,14.04074 4.8919284,13.9681593 Z M6.49596774,13.9064587 C6.60122385,13.8955787 6.69917937,13.942749 6.71009482,14.0116794 C6.72097483,14.08426 6.64839418,14.1532258 6.54313807,14.1786361 C6.43426711,14.2040464 6.33992644,14.1568407 6.32904643,14.08426 C6.31813099,14.0007994 6.39071163,13.931869 6.49596774,13.9064587 Z M8.88386388,0 C13.9173387,0 18,3.82136388 18,8.85483871 C18,12.8794497 15.5395232,16.32338 11.910491,17.5282258 C11.4495968,17.6116865 11.2826755,17.3250142 11.2826755,17.0891271 C11.2826755,16.7915393 11.2935555,15.2782258 11.2935555,14.0552348 C11.2935555,13.2024123 11.010498,12.6580574 10.67662,12.3713851 C12.7052278,12.1427278 14.8427419,11.8633206 14.8427419,8.3613045 C14.8427419,7.36693548 14.4871039,6.86613612 13.9064587,6.22379032 C14.0007994,5.98790323 14.3092671,5.01894452 13.8120826,3.75966324 C13.0536361,3.52016129 11.3080503,4.73950195 11.3080503,4.73950195 C10.5822439,4.53629032 9.80200195,4.43103421 9.02902517,4.43103421 C8.25604839,4.43103421 7.47580645,4.53629032 6.75,4.73950195 C6.75,4.73950195 5.00444966,3.52377615 4.24596774,3.75966324 C3.74878323,5.01532967 4.05725098,5.98790323 4.15162708,6.22379032 C3.57098192,6.86248582 3.2951542,7.36332063 3.2951542,8.3613045 C3.2951542,11.8524052 5.34194257,12.1463781 7.37055034,12.3713851 C7.10928837,12.6108871 6.87340127,13.0136955 6.78990518,13.5943407 C6.27096065,13.8338781 4.93909873,14.2366865 4.14436193,12.8358942 C3.64717742,11.9721916 2.74353421,11.899611 2.74353421,11.899611 C1.85442131,11.8886955 2.68548387,12.4584607 2.68548387,12.4584607 C3.28065934,12.7306381 3.69434775,13.7867077 3.69434775,13.7867077 C4.22782258,15.4125071 6.76814516,14.8681522 6.76814516,14.8681522 C6.76814516,15.630249 6.77902517,16.8713851 6.77902517,17.0963568 C6.77902517,17.3322439 6.61571872,17.6189516 6.15120968,17.535491 C2.53305743,16.32338 0,12.8794497 0,8.85483871 C0,3.82136388 3.85038905,0 8.88386388,0 Z M3.52742644,12.5165464 C3.57459677,12.4693407 3.65805743,12.494751 3.71614321,12.5528368 C3.7778084,12.6217671 3.78872385,12.7052278 3.74151808,12.7415181 C3.69434775,12.7887239 3.6108871,12.7633135 3.55283676,12.7052278 C3.49113612,12.6362974 3.48025611,12.5528368 3.52742644,12.5165464 Z M3.13549805,12.2225736 C3.16087292,12.1862832 3.2189587,12.1754032 3.29153935,12.1971632 C3.36411999,12.2334536 3.40041031,12.2915393 3.375,12.3387097 C3.34958969,12.3895303 3.27700904,12.4004103 3.2189587,12.36412 C3.14637806,12.3278297 3.11008773,12.2697439 3.13549805,12.2225736 Z M4.31128323,13.5145303 C4.35845357,13.4564445 4.46732453,13.4673245 4.54717033,13.5508206 C4.61975098,13.619751 4.64154643,13.7286219 4.59434066,13.7757923 C4.54717033,13.8338781 4.44194966,13.822998 4.35845357,13.739502 C4.27499291,13.6705716 4.25323289,13.5617006 4.31128323,13.5145303 Z M3.89759482,12.9810555 C3.95564516,12.9338851 4.04998582,12.9701755 4.10080645,13.0536361 C4.15885679,13.1370968 4.15885679,13.2314374 4.10080645,13.2786432 C4.05363612,13.3149335 3.95564516,13.2786432 3.89759482,13.1951471 C3.83950904,13.1116865 3.83950904,13.0173458 3.89759482,12.9810555 Z" id=""></path>
            </g>
        </g>
    </g>
</svg>