<?xml version="1.0" encoding="UTF-8"?>
<svg width="50px" height="50px" viewBox="0 0 50 50" version="1.1" xmlns="http://www.w3.org/2000/svg" xmlns:xlink="http://www.w3.org/1999/xlink">
    <!-- Generator: Sketch 53.2 (72643) - https://sketchapp.com -->
    <title>Element/Icon/Social/Twitter/Background</title>
    <desc>Created with Sketch.</desc>
    <g id="Element/Icon/Social/Twitter/Background" stroke="none" stroke-width="1" fill="none" fill-rule="evenodd">
        <g id="Group-4" fill="#1DA1F2">
            <g id="Element/Circle/Fill" opacity="0.1">
                <circle id="Oval" cx="25" cy="25" r="25"></circle>
            </g>
            <g id="Element/Icon/Social/Twitter/Original" transform="translate(15.967413, 16.000000)">
                <path d="M16.1497923,5.6433893 C16.161225,5.80327531 16.161225,5.96322999 16.161225,6.12311601 C16.161225,11 12.4493082,16.6193223 5.66498438,16.6193223 C3.57486181,16.6193223 1.63326124,16.0139733 0,14.9632643 C0.296975315,14.9974937 0.582483606,15.0089264 0.89085728,15.0089264 C2.61544272,15.0089264 4.20304185,14.4264428 5.47083462,13.4327943 C3.84900608,13.3984962 2.48985477,12.3363203 2.02156075,10.8743777 C2.25000858,10.9086415 2.47842208,10.9314725 2.71830261,10.9314725 C3.04950733,10.9314725 3.38074639,10.8857761 3.68908573,10.8058502 C1.9987297,10.4631785 0.730936931,8.97843925 0.730936931,7.185292 L0.730936931,7.1396299 C1.22202767,7.41373983 1.79314725,7.58505854 2.39842758,7.60785525 C1.40477907,6.94541147 0.753802314,5.814708 0.753802314,4.53551687 C0.753802314,3.85024204 0.936485048,3.222062 1.25632575,2.67384214 C3.07230405,4.91241803 5.80203934,6.37432623 8.8629107,6.53424658 C8.80581591,6.26013664 8.77155217,5.97462835 8.77155217,5.68908573 C8.77155217,3.65609229 10.4162461,2 12.4606379,2 C13.5228482,2 14.4821986,2.44542864 15.1561095,3.16496721 C15.9898376,3.0050812 16.789302,2.69670752 17.4974766,2.27410993 C17.2233323,3.1307378 16.6408487,3.85027638 15.875648,4.30710337 C16.618052,4.22717753 17.3375906,4.02156075 18,3.73605246 C17.4975452,4.46698939 16.8693309,5.11800048 16.1497923,5.6433893 Z" id=""></path>
            </g>
        </g>
    </g>
</svg>