<?xml version="1.0" encoding="UTF-8"?>
<svg width="45px" height="50px" viewBox="0 0 45 50" version="1.1" xmlns="http://www.w3.org/2000/svg" xmlns:xlink="http://www.w3.org/1999/xlink">
    <!-- Generator: Sketch 53.2 (72643) - https://sketchapp.com -->
    <title>Element/Icon/UI/Document</title>
    <desc>Created with Sketch.</desc>
    <g id="Research" stroke="none" stroke-width="1" fill="none" fill-rule="evenodd">
        <g id="Artboard" transform="translate(-3338.000000, -7677.000000)" fill="#388DF5">
            <g id="Group-35-Copy-4" transform="translate(3291.000000, 7633.000000)">
                <g id="Group-19" transform="translate(21.500000, 20.000000)">
                    <g id="Element/Icon/UI/Document" transform="translate(23.500000, 24.000000)">
                        <path d="M37.5434028,15.625 L21.1371528,15.625 C20.4926597,15.625 19.9652778,15.0976181 19.9652778,14.453125 L19.9652778,13.671875 C19.9652778,13.0273819 20.4926597,12.5 21.1371528,12.5 L37.5434028,12.5 C38.1878959,12.5 38.7152778,13.0273819 38.7152778,13.671875 L38.7152778,14.453125 C38.7152778,15.0976181 38.1878959,15.625 37.5434028,15.625 Z M38.7152778,20.703125 C38.7152778,21.3476181 38.1878959,21.875 37.5434028,21.875 L21.1371528,21.875 C20.4926597,21.875 19.9652778,21.3476181 19.9652778,20.703125 L19.9652778,19.921875 C19.9652778,19.2773819 20.4926597,18.75 21.1371528,18.75 L37.5434028,18.75 C38.1878959,18.75 38.7152778,19.2773819 38.7152778,19.921875 L38.7152778,20.703125 Z M45.0336562,46.875 L45.3559028,46.875 C46.0003959,46.875 46.5277778,47.4023819 46.5277778,48.046875 L46.5277778,48.828125 C46.5277778,49.4726181 46.0003959,50 45.3559028,50 L10.5902778,50 C6.27385245,50 2.77777778,46.5039253 2.77777778,42.1875 L2.77777778,7.8125 C2.77777778,3.49607468 6.27385245,0 10.5902778,0 L44.1840278,0 C45.4828368,0 46.5277778,1.04494095 46.5277778,2.34375 L46.5277778,38.28125 C46.5277778,39.2578125 45.92229,40.0976181 45.0726615,40.4492378 C44.7211372,42.0214653 44.6430312,44.9023247 45.0336562,46.875 Z M15.2777778,37.5 L43.4027778,37.5 L43.4027778,3.125 L15.2777778,3.125 L15.2777778,37.5 Z M5.90277778,39.0625 C7.21140967,38.0859375 8.83246528,37.5 10.5902778,37.5 L12.1527778,37.5 L12.1527778,3.125 L10.5902778,3.125 C8.00238715,3.125 5.90277778,5.22460938 5.90277778,7.8125 L5.90277778,39.0625 Z M42.2601806,46.875 C41.9574844,44.8827744 41.9770347,42.4609184 42.2601806,40.625 L10.5902778,40.625 C4.34027778,40.625 4.34027778,46.875 10.5902778,46.875 L42.2601806,46.875 Z" id=""></path>
                    </g>
                </g>
            </g>
        </g>
    </g>
</svg>