<?xml version="1.0" encoding="UTF-8"?>
<svg width="18px" height="16px" viewBox="0 0 18 16" version="1.1" xmlns="http://www.w3.org/2000/svg" xmlns:xlink="http://www.w3.org/1999/xlink">
    <!-- Generator: Sketch 53.2 (72643) - https://sketchapp.com -->
    <title>Element/Icon/UI/External Link</title>
    <desc>Created with Sketch.</desc>
    <g id="Research" stroke="none" stroke-width="1" fill="none" fill-rule="evenodd">
        <g id="Artboard" transform="translate(-3383.000000, -8740.000000)" fill="#FFFFFF">
            <g id="Group-35-Copy-37" transform="translate(2951.000000, 8719.000000)">
                <g id="Element/Icon/UI/External-Link" transform="translate(432.000000, 20.000000)">
                    <path d="M16.9999986,1 C17.5523362,1 18.0009446,1.44851681 17.9999985,2.0017089 L17.99478,5.00689664 C17.9932541,5.89916952 16.9133897,6.33801225 16.2876879,5.71227988 L15.1854235,4.61004609 L5.90530347,13.8901662 C5.75888014,14.0365895 5.52142288,14.0365895 5.37496904,13.8901662 L5.10983234,13.624999 C4.96340901,13.4785756 4.96340901,13.2411184 5.10983234,13.094695 L14.3898914,3.81457496 L13.2876576,2.71231065 C12.6599111,2.08456412 13.1042164,1.00674438 13.9930408,1.00521851 L16.9982591,1 L16.9999986,1 Z M16.9947801,5.00521817 L16.9999986,1.99999992 L13.9947803,2.00521842 L16.9947801,5.00521817 Z M13.9999988,8.11502016 L13.9999988,15.4999988 C13.9999988,16.3284289 13.3284291,16.9999987 12.499999,16.9999987 L1.49999988,16.9999987 C0.671569768,16.9999987 0,16.3284289 0,15.4999988 L0,4.49999971 C0,3.6715696 0.671569768,2.99999983 1.49999988,2.99999983 L11.6242361,2.99999983 C11.7237234,2.99999983 11.8190908,3.03948958 11.8894033,3.10983259 L12.1394033,3.35983257 C12.3756704,3.59609964 12.2083425,3.99999975 11.8742361,3.99999975 L1.49999988,3.99999975 C1.22384633,3.99999975 0.999999917,4.22384617 0.999999917,4.49999971 L0.999999917,15.4999988 C0.999999917,15.7761523 1.22384633,15.9999988 1.49999988,15.9999988 L12.499999,15.9999988 C12.7761525,15.9999988 12.9999989,15.7761523 12.9999989,15.4999988 L12.9999989,8.36498962 C12.9999989,8.26553284 13.0394887,8.17016542 13.1098317,8.09985293 L13.3598317,7.84985295 C13.5960682,7.61361639 13.9999988,7.78094426 13.9999988,8.11502016 Z" id="ï"></path>
                </g>
            </g>
        </g>
    </g>
</svg>