<?xml version="1.0" encoding="UTF-8"?>
<svg width="58px" height="50px" viewBox="0 0 58 50" version="1.1" xmlns="http://www.w3.org/2000/svg" xmlns:xlink="http://www.w3.org/1999/xlink">
    <!-- Generator: Sketch 53.2 (72643) - https://sketchapp.com -->
    <title></title>
    <desc>Created with Sketch.</desc>
    <g id="Research" stroke="none" stroke-width="1" fill="none" fill-rule="evenodd">
        <g id="Artboard" transform="translate(-2992.000000, -7678.000000)" fill="#8350DB">
            <g id="Group-35-Copy-3" transform="translate(2951.000000, 7633.000000)">
                <g id="Group-19" transform="translate(20.000000, 20.000000)">
                    <path d="M31.7142857,39.2857143 C29.7388175,39.2857143 28.1428571,37.6897539 28.1428571,35.7142857 C28.1428571,33.7388175 29.7388175,32.1428571 31.7142857,32.1428571 C33.6897539,32.1428571 35.2857143,33.7388175 35.2857143,35.7142857 C35.2857143,37.6897539 33.6897539,39.2857143 31.7142857,39.2857143 Z M46,35.7142857 C46,37.6897539 44.4040397,39.2857143 42.4285714,39.2857143 C40.4531032,39.2857143 38.8571429,37.6897539 38.8571429,35.7142857 C38.8571429,33.7388175 40.4531032,32.1428571 42.4285714,32.1428571 C44.4040397,32.1428571 46,33.7388175 46,35.7142857 Z M56.7142857,35.7142857 C56.7142857,37.6897539 55.1183254,39.2857143 53.1428571,39.2857143 C51.1673889,39.2857143 49.5714286,37.6897539 49.5714286,35.7142857 C49.5714286,33.7388175 51.1673889,32.1428571 53.1428571,32.1428571 C55.1183254,32.1428571 56.7142857,33.7388175 56.7142857,35.7142857 Z M78.1428571,30.3571429 L78.1428571,69.6428571 C78.1428571,72.6004464 75.7433036,75 72.7857143,75 L26.3571429,75 C23.3995536,75 21,72.6004464 21,69.6428571 L21,30.3571429 C21,27.3995536 23.3995536,25 26.3571429,25 L72.7857143,25 C75.7433036,25 78.1428571,27.3995536 78.1428571,30.3571429 Z M74.5714286,46.4285714 L24.5714286,46.4285714 L24.5714286,69.6428571 C24.5714286,70.6249782 25.3750218,71.4285714 26.3571429,71.4285714 L72.7857143,71.4285714 C73.7678353,71.4285714 74.5714286,70.6249782 74.5714286,69.6428571 L74.5714286,46.4285714 Z M74.5714286,42.8571429 L74.5714286,30.3571429 C74.5714286,29.3750218 73.7678353,28.5714286 72.7857143,28.5714286 L26.3571429,28.5714286 C25.3750218,28.5714286 24.5714286,29.3750218 24.5714286,30.3571429 L24.5714286,42.8571429 L74.5714286,42.8571429 Z" id=""></path>
                </g>
            </g>
        </g>
    </g>
</svg>